<svg width="568" height="157" viewBox="0 0 568 157" fill="none" xmlns="http://www.w3.org/2000/svg">
<path d="M0 22.1567C0 9.91991 9.91991 0 22.1567 0H88.3999C100.637 0 110.557 9.91991 110.557 22.1567C110.557 34.3936 100.637 44.3135 88.3999 44.3135H22.1567C9.91992 44.3135 0 34.3936 0 22.1567Z" fill="white"/>
<path d="M0 78.096C0 65.8592 9.91991 55.9392 22.1567 55.9392H73.6287C85.8655 55.9392 95.7854 65.8592 95.7854 78.096C95.7854 90.3328 85.8655 100.253 73.6287 100.253H22.1567C9.91991 100.253 0 90.3328 0 78.096Z" fill="white"/>
<path d="M0 134.077C0 121.841 9.92163 111.921 22.1585 111.921C34.3953 111.921 44.3169 121.841 44.3169 134.077C44.3169 146.314 34.3953 156.234 22.1585 156.234C9.92163 156.234 0 146.314 0 134.077Z" fill="white"/>
<path d="M162.438 117.782L162.438 36.2597H215.058V48.9255H176.946V71.2634H212.871V83.4687H176.946L176.946 117.782H162.438Z" fill="white"/>
<path d="M225.68 117.782L225.68 74.2572L225.68 36.2597H239.497L239.497 117.782H225.68Z" fill="white"/>
<path d="M252.229 44.55C252.229 40.1746 255.914 36.2597 260.98 36.2597C266.047 36.2597 269.961 39.8291 269.961 44.55C269.961 49.2709 266.047 52.8404 260.98 52.8404C255.914 52.8404 252.229 48.9255 252.229 44.55ZM254.187 117.782L254.187 62.5125H268.004L268.004 117.782H254.187Z" fill="white"/>
<path d="M282.464 62.5125H295.705V70.2271H296.051C298.814 65.8517 305.032 60.9005 315.164 60.9005C330.939 60.9005 341.993 73.5663 341.993 89.9167C341.993 106.037 331.63 119.394 314.819 119.394C307.104 119.394 300.081 115.939 296.511 110.412H296.281V145.416H282.464V62.5125ZM327.945 89.9167C327.945 81.2809 322.764 72.1846 312.056 72.1846C301.923 72.1846 295.82 81.5112 295.82 90.147C295.82 98.7828 301.923 107.879 312.056 107.879C322.764 107.879 327.945 98.5525 327.945 89.9167Z" fill="white"/>
<path d="M400.234 69.5363L390.792 77.8266C388.605 74.7177 383.884 72.4149 379.393 72.4149C369.26 72.4149 364.194 81.5112 364.194 90.147C364.194 98.7828 369.376 107.879 379.854 107.879C384.114 107.879 388.835 106.152 391.483 102.928L400.119 111.679C395.513 116.63 387.914 119.394 379.739 119.394C363.388 119.394 349.801 108.57 349.801 90.147C349.801 72.1846 363.158 60.9005 379.393 60.9005C387.453 60.9005 395.859 64.1245 400.234 69.5363Z" fill="white"/>
<path d="M441.258 117.782V110.758H440.912C438.149 115.594 431.586 119.163 423.756 119.163C414.89 119.163 403.03 114.903 403.03 102.007C403.03 85.5413 423.756 83.2384 441.027 83.2384V81.8567C441.027 75.0632 435.27 71.724 428.362 71.724C422.489 71.724 416.847 74.4875 413.278 78.0569L406.139 69.6514C412.357 63.8942 421.108 60.9005 429.513 60.9005C449.318 60.9005 454.154 73.1057 454.154 84.1595V117.782H441.258ZM441.027 94.5225V92.5651H437.919C429.168 92.5651 416.847 93.6013 416.847 101.777C416.847 107.073 421.798 108.685 426.519 108.685C435.961 108.685 441.027 103.273 441.027 94.5225Z" fill="white"/>
<path d="M507.213 69.306L498.232 77.2509C495.814 74.0269 491.208 71.2634 486.141 71.2634C481.766 71.2634 477.275 72.8754 477.275 77.2509C477.275 81.5112 481.536 82.6627 489.25 84.505C497.426 86.4624 507.098 90.147 507.098 100.971C507.098 114.442 496.159 119.394 484.069 119.394C475.548 119.394 466.682 116.17 461.385 110.297L470.482 101.777C473.476 105.691 478.657 108.685 484.645 108.685C488.675 108.685 493.511 107.073 493.511 102.122C493.511 97.5162 489.25 96.1345 480.845 94.1771C472.67 92.2196 464.494 88.8804 464.494 78.5175C464.494 66.1971 475.548 60.9005 486.487 60.9005C494.432 60.9005 502.722 63.6639 507.213 69.306Z" fill="white"/>
<path d="M547.552 60.9005C561.945 60.9005 567.932 71.9543 567.932 83.2384V117.782H554.115V87.3836C554.115 80.8204 552.733 72.7603 543.867 72.7603C535.116 72.7603 530.856 80.2446 530.856 87.6139V117.782H517.039L517.039 36.2597H530.856L530.856 70.2271H531.086C533.274 65.6214 539.377 60.9005 547.552 60.9005Z" fill="white"/>
</svg>
